<svg id="Layer_5" enable-background="new 0 0 62 52" height="512" viewBox="0 0 62 52" width="512" xmlns="http://www.w3.org/2000/svg" xmlns:xlink="http://www.w3.org/1999/xlink"><linearGradient id="SVGID_1_" gradientUnits="userSpaceOnUse" x1="31" x2="31" y1="52" y2="0"><stop offset="0" stop-color="#9f2fff"/><stop offset="1" stop-color="#0bb1d3"/></linearGradient><path d="m9 25c0 .552-.448 1-1 1s-1-.448-1-1 .448-1 1-1 1 .448 1 1zm45 1c.552 0 1-.448 1-1s-.448-1-1-1-1 .448-1 1 .448 1 1 1zm-27.406-4h8.813c.174 0 .345.045.496.132 1.91 1.092 3.097 3.137 3.097 5.337v.452c0 .389-.041.79-.128 1.262-.088.473-.501.817-.983.817h-13.778c-.482 0-.896-.344-.983-.818-.087-.472-.128-.873-.128-1.262v-.452c0-2.2 1.187-4.245 3.098-5.337.151-.086.322-.131.496-.131zm8.531 2h-3.125v4h4.999c.001-.027.001-.053.001-.08v-.452c0-1.399-.712-2.706-1.875-3.468zm-8.25 0c-1.162.762-1.875 2.069-1.875 3.469v.452c0 .026 0 .053.001.08h4.999v-4zm35.125-6v2c0 1.103-.897 2-2 2h-2.026c.635.838 1.026 1.87 1.026 3 0 2.757-2.243 5-5 5-1.079 0-2.073-.352-2.892-.936l-6.571 2.286c-.271.987-.664 1.932-1.155 2.82l2.199 5.865c.137-.02.28-.035.423-.035 1.444 0 2.667 1.015 2.94 2.425l2.015 6.082c.132.791-.053 1.585-.519 2.238-.466.652-1.157 1.083-1.948 1.215-.167.027-.329.04-.493.04-1.444 0-2.669-1.014-2.943-2.423l-2.015-6.083c-.132-.791.053-1.585.519-2.238.072-.1.158-.185.24-.275l-1.797-4.793c-1.026 1.232-2.283 2.286-3.739 3.08l-3.029 1.652c-1.296.706-2.759 1.08-4.235 1.08s-2.939-.374-4.234-1.08l-3.029-1.652c-1.454-.793-2.711-1.846-3.736-3.077l-1.796 4.79c.082.09.168.174.24.275.466.652.65 1.447.519 2.238l-.038.152-1.977 5.931c-.275 1.409-1.5 2.423-2.944 2.423-.164 0-.326-.013-.493-.041-.791-.132-1.482-.563-1.948-1.215s-.65-1.447-.519-2.238l.038-.152 1.977-5.93c.273-1.41 1.496-2.424 2.94-2.424.141 0 .284.016.423.036l2.197-5.861c-.492-.89-.885-1.836-1.157-2.824l-6.572-2.286c-.818.583-1.812.935-2.891.935-2.757 0-5-2.243-5-5 0-1.13.391-2.162 1.026-3h-2.026c-1.103 0-2-.897-2-2v-2c0-1.103.897-2 2-2h24.327l.273-2.46-13.6-2.72v-4.82h14.438l.666-6h5.791l.666 6h14.439v4.82l-13.601 2.72.274 2.46h24.327c1.103 0 2 .897 2 2zm-45.001 25.1c.024-.242-.039-.481-.182-.681-.157-.221-.382-.361-.649-.405-.582-.096-1.062.283-1.15.821l-.038.154-1.971 5.911c-.024.242.039.481.182.681.157.221.382.361.649.405.556.093 1.062-.284 1.15-.821l.038-.153zm28.843-1.087c-.273.045-.498.186-.655.406-.143.2-.206.439-.182.681l2.009 6.065c.089.538.594.914 1.15.821.268-.044.492-.185.649-.405.143-.2.206-.439.182-.681l-2.009-6.065c-.089-.539-.619-.907-1.144-.822zm-10.436-24.013h-8.813c-.868 0-1.727.228-2.481.659-3.153 1.802-5.112 5.178-5.112 8.81v.452c0 2.211.686 4.309 1.875 6.08h20.251c1.188-1.771 1.874-3.87 1.874-6.081v-.452c0-3.632-1.959-7.008-5.112-8.81-.755-.43-1.614-.658-2.482-.658zm14.62 4h-6.359c.47.928.819 1.913 1.04 2.94l4.599-1.6c.172-.486.413-.935.72-1.34zm-31.693 0h-6.359c.306.404.548.854.721 1.34l4.599 1.599c.22-1.026.57-2.011 1.039-2.939zm16.451-14 .394 3.545 11.822-2.365v-1.18zm-4.888-6-1.556 14h5.32l-1.556-14zm-3.074 9.545.394-3.545h-12.216v1.18zm-24.822 8.455h17.578c.576-.739 1.246-1.406 1.986-2h-19.564zm9 5c0-1.654-1.346-3-3-3s-3 1.346-3 3 1.346 3 3 3 3-1.346 3-3zm6.06 4.092c-.036-.387-.06-.777-.06-1.172v-.452c0-.169.027-.334.034-.503l-4.089-1.422c-.076.688-.286 1.329-.613 1.904zm22.344 6.908h-16.808c.633.574 1.327 1.092 2.097 1.512l3.029 1.652c2.006 1.093 4.549 1.093 6.555 0l3.029-1.652c.771-.42 1.464-.938 2.098-1.512zm5.596-8.531v.452c0 .394-.024.784-.06 1.172l4.727-1.644c-.326-.575-.537-1.216-.612-1.904l-4.089 1.422c.007.168.034.332.034.502zm9-5.469c-1.654 0-3 1.346-3 3s1.346 3 3 3 3-1.346 3-3-1.346-3-3-3zm6-4h-19.564c.74.594 1.41 1.261 1.986 2h17.578z" fill="url(#SVGID_1_)"/></svg>